<?xml version="1.0" encoding="UTF-8" standalone="no"?>
<svg
   sodipodi:docname="up-icon.svg"
   inkscape:version="1.2.2 (b0a8486541, 2022-12-01)"
   id="svg8"
   version="1.1"
   viewBox="0 0 8.466666 8.4666665"
   height="32"
   width="32"
   xmlns:inkscape="http://www.inkscape.org/namespaces/inkscape"
   xmlns:sodipodi="http://sodipodi.sourceforge.net/DTD/sodipodi-0.dtd"
   xmlns="http://www.w3.org/2000/svg"
   xmlns:svg="http://www.w3.org/2000/svg"
   xmlns:rdf="http://www.w3.org/1999/02/22-rdf-syntax-ns#"
   xmlns:cc="http://creativecommons.org/ns#"
   xmlns:dc="http://purl.org/dc/elements/1.1/">
  <defs
     id="defs2">
    <clipPath
       id="clipPath851"
       clipPathUnits="userSpaceOnUse">
      <path
         d="M -4.735418,288.89113 H 8.968751 v 11.98438 H -4.735418 Z m 7.5134454,5.9922 a 0.66145831,0.66145831 0 0 0 -0.6614584,-0.66146 0.66145831,0.66145831 0 0 0 -0.6614583,0.66146 0.66145831,0.66145831 0 0 0 0.6614583,0.66146 0.66145831,0.66145831 0 0 0 0.6614584,-0.66146 z"
         class="powerclip"
         style="fill:#ffffff;fill-opacity:1;stroke-width:0"
         id="lpe_path-effect855" />
    </clipPath>
    <inkscape:path-effect
       message="Use fill-rule evenodd on &lt;b&gt;fill and stroke&lt;/b&gt; dialog if no flatten result after convert clip to paths."
       hide_clip="false"
       flatten="false"
       inverse="true"
       lpeversion="1"
       is_visible="true"
       id="path-effect855"
       effect="powerclip" />
    <clipPath
       id="clipPath851-5"
       clipPathUnits="userSpaceOnUse">
      <path
         d="M -4.735418,288.89113 H 8.968751 v 11.98438 H -4.735418 Z m 7.5134454,5.9922 a 0.66145831,0.66145831 0 0 0 -0.6614584,-0.66146 0.66145831,0.66145831 0 0 0 -0.6614583,0.66146 0.66145831,0.66145831 0 0 0 0.6614583,0.66146 0.66145831,0.66145831 0 0 0 0.6614584,-0.66146 z"
         class="powerclip"
         style="fill:#ffffff;fill-opacity:1;stroke-width:0"
         id="lpe_path-effect855-3" />
    </clipPath>
    <clipPath
       id="clipPath851-3"
       clipPathUnits="userSpaceOnUse">
      <path
         d="M -4.735418,288.89113 H 8.968751 v 11.98438 H -4.735418 Z m 7.5134454,5.9922 a 0.66145831,0.66145831 0 0 0 -0.6614584,-0.66146 0.66145831,0.66145831 0 0 0 -0.6614583,0.66146 0.66145831,0.66145831 0 0 0 0.6614583,0.66146 0.66145831,0.66145831 0 0 0 0.6614584,-0.66146 z"
         class="powerclip"
         style="fill:#ffffff;fill-opacity:1;stroke-width:0"
         id="lpe_path-effect855-6" />
    </clipPath>
  </defs>
  <sodipodi:namedview
     id="base"
     pagecolor="#ffffff"
     bordercolor="#666666"
     borderopacity="1.0"
     inkscape:pageopacity="0.0"
     inkscape:pageshadow="2"
     inkscape:zoom="4"
     inkscape:cx="32"
     inkscape:cy="35"
     inkscape:document-units="px"
     inkscape:current-layer="layer1"
     showgrid="true"
     units="px"
     inkscape:snap-intersection-paths="true"
     inkscape:lockguides="false"
     inkscape:snap-text-baseline="true"
     showguides="true"
     inkscape:guide-bbox="true"
     inkscape:object-paths="false"
     inkscape:snap-grids="false"
     inkscape:window-width="1920"
     inkscape:window-height="1011"
     inkscape:window-x="0"
     inkscape:window-y="32"
     inkscape:window-maximized="1"
     inkscape:document-rotation="0"
     inkscape:pagecheckerboard="true"
     inkscape:showpageshadow="2"
     inkscape:deskcolor="#d1d1d1">
    <inkscape:grid
       type="xygrid"
       id="grid169"
       empspacing="32"
       originx="0"
       originy="0" />
  </sodipodi:namedview>
  <metadata
     id="metadata5">
    <rdf:RDF>
      <cc:Work
         rdf:about="">
        <dc:format>image/svg+xml</dc:format>
        <dc:type
           rdf:resource="http://purl.org/dc/dcmitype/StillImage" />
      </cc:Work>
    </rdf:RDF>
  </metadata>
  <g
     inkscape:label="Layer 1"
     inkscape:groupmode="layer"
     id="layer1"
     transform="translate(0,-292.767)">
    <path
       sodipodi:nodetypes="cccc"
       id="path1402-3"
       d="m 6.3499965,298.58783 h -4.233329 l 2.116665,-3.175 z"
       style="fill:#b3b3b3;fill-opacity:1;stroke:#000000;stroke-width:0;stroke-linecap:butt;stroke-linejoin:miter;stroke-miterlimit:4;stroke-dasharray:none;stroke-dashoffset:0;stroke-opacity:1" />
  </g>
</svg>
